<svg width="165" height="40" viewBox="0 0 165 40" fill="none" xmlns="http://www.w3.org/2000/svg">
<g clip-path="url(#clip0_1937_3619)">
<path d="M56.1024 30.7813H58.751L57.8429 32.107C58.0942 31.2498 58.3969 30.2456 58.751 29.097C59.1037 27.9484 59.4821 26.7684 59.8862 25.557C60.2889 24.3456 60.6929 23.1856 61.097 22.0741L65.3349 10.2627H68.1735L59.4707 32.977H55.3841L46.6442 10.2627H49.557L53.9091 22.0741C54.3118 23.1856 54.7159 24.3584 55.12 25.5956C55.5226 26.8327 55.8896 28.0241 56.218 29.1727C56.545 30.3213 56.7977 31.2998 56.9748 32.107L56.1038 30.7813H56.1024Z" fill="#EEEFF2"/>
<path d="M76.4223 33.3927C74.6061 33.3927 73.0611 33.0327 71.7875 32.3142C70.5138 31.5942 69.5415 30.5485 68.8732 29.1713C68.205 27.7956 67.8708 26.1499 67.8708 24.2313C67.8708 22.3127 68.2178 20.6227 68.9118 19.2342C69.6057 17.847 70.5824 16.787 71.8446 16.0542C73.1054 15.3227 74.5932 14.957 76.3095 14.957C78.0258 14.957 79.4808 15.2913 80.6046 15.9599C81.7269 16.6285 82.565 17.5627 83.1205 18.7613C83.6745 19.9599 83.9529 21.3799 83.9529 23.0199V23.8342C83.9529 24.1742 83.9272 24.5099 83.8772 24.837H69.5743V23.0199H82.2509L81.5313 23.7013C81.5555 21.557 81.1714 19.897 80.3775 18.7227C79.5822 17.5499 78.2015 16.9627 76.2339 16.9627C74.2663 16.9627 72.9098 17.5685 71.9388 18.7799C70.9679 19.9913 70.4824 21.7956 70.4824 24.1927C70.4824 26.4142 70.9679 28.1427 71.9388 29.3799C72.9098 30.617 74.4048 31.2342 76.4223 31.2342C77.5818 31.2342 78.497 31.0585 79.1653 30.7042C79.8335 30.3513 80.3447 29.8785 80.6974 29.2842C81.0501 28.6913 81.3271 28.0285 81.5298 27.297L83.8001 27.9399C83.5217 29.0756 83.0876 30.047 82.4951 30.8556C81.9025 31.6642 81.1143 32.2885 80.1305 32.7299C79.1467 33.1713 77.9102 33.3927 76.4223 33.3927Z" fill="#EEEFF2"/>
<path d="M89.0975 19.6884L90.1199 19.7256L89.2875 22.2241C89.4631 20.9627 89.7344 19.8841 90.1013 18.987C90.4669 18.0913 90.9209 17.347 91.4635 16.7541C92.0061 16.1613 92.6301 15.7199 93.3369 15.4299C94.0422 15.1399 94.8247 14.9941 95.6829 14.9941H95.9099V17.8341H95.6829C94.2693 17.8341 93.1098 18.0613 92.2017 18.5156C91.2936 18.9699 90.6254 19.6827 90.197 20.6541C89.7672 21.6256 89.5545 22.9199 89.5545 24.5341V32.9756H86.9814V15.3727H89.4031V22.0356L89.1004 19.6884H89.0975Z" fill="#EEEFF2"/>
<path d="M101.774 10.9443H98.5957V8.14282H101.774V10.9443ZM101.471 32.9771H98.8599V15.3743H101.471V32.9771Z" fill="#EEEFF2"/>
<path d="M104.838 24.2314C104.838 21.1028 105.412 18.7742 106.56 17.2471C107.708 15.7199 109.342 14.9571 111.461 14.9571C112.823 14.9571 113.958 15.2671 114.866 15.8842C115.774 16.5028 116.5 17.3042 117.042 18.2885C117.585 19.2728 117.969 20.3328 118.196 21.4685L118.006 23.0199C118.006 21.3799 117.508 20.0228 116.511 18.9499C115.514 17.8771 114.184 17.3414 112.519 17.3414C110.854 17.3414 109.492 17.8714 108.659 18.9314C107.827 19.9914 107.41 21.7585 107.41 24.2314C107.41 26.7042 107.827 28.4399 108.659 29.5128C109.492 30.5856 110.778 31.1214 112.519 31.1214C113.628 31.1214 114.593 30.8756 115.413 30.3828C116.233 29.8899 116.87 29.2157 117.324 28.3571C117.778 27.4999 118.005 26.5399 118.005 25.4799L118.232 26.0099C118.18 26.9699 117.986 27.8899 117.645 28.7728C117.305 29.6571 116.825 30.4457 116.207 31.1385C115.589 31.8328 114.863 32.3814 114.031 32.7857C113.198 33.1885 112.265 33.3914 111.231 33.3914C109.238 33.3914 107.674 32.6342 106.539 31.1199C105.404 29.6056 104.835 27.3099 104.835 24.2299L104.838 24.2314ZM118.536 21.6957H117.968L117.401 19.4999H118.687L118.536 21.6957ZM118.724 28.8128H117.438L117.968 27.1099H118.724V28.8128ZM118.006 32.9771V7.61279H120.618V32.9771H118.006Z" fill="#EEEFF2"/>
<path d="M128.108 10.9443H124.93V8.14282H128.108V10.9443ZM127.806 32.9771H125.194V15.3743H127.806V32.9771Z" fill="#EEEFF2"/>
<path d="M136.281 33.3556C135.17 33.3556 134.212 33.1971 133.406 32.8828C132.597 32.5671 131.973 32.0499 131.532 31.3299C131.091 30.6099 130.87 29.6828 130.87 28.5471C130.87 27.1085 131.374 25.9099 132.383 24.9514C133.391 23.9928 134.956 23.5128 137.075 23.5128H143.621V25.1785H137.415C136.103 25.1785 135.093 25.4428 134.388 25.9728C133.681 26.5028 133.329 27.2985 133.329 28.3585C133.329 28.8885 133.448 29.3742 133.688 29.8156C133.928 30.2571 134.325 30.6042 134.881 30.8571C135.435 31.1099 136.18 31.2356 137.112 31.2356C138.298 31.2356 139.338 31.0342 140.234 30.6299C141.129 30.2271 141.829 29.6642 142.334 28.9456C142.838 28.2256 143.091 27.4128 143.091 26.5042V21.3942C143.091 20.0314 142.77 18.9842 142.126 18.2514C141.483 17.5199 140.354 17.1542 138.739 17.1542C137.502 17.1542 136.518 17.4442 135.787 18.0242C135.055 18.6056 134.501 19.3742 134.122 20.3342L131.662 19.4256C131.989 18.5428 132.482 17.7671 133.137 17.0971C133.793 16.4285 134.599 15.9042 135.559 15.5256C136.517 15.1471 137.589 14.9585 138.776 14.9585C140.389 14.9585 141.702 15.1985 142.711 15.6771C143.719 16.1571 144.464 16.8756 144.943 17.8356C145.421 18.7956 145.662 19.9685 145.662 21.3556V32.9785H143.316V27.8671L143.733 29.1171H142.447L143.128 28.0956C142.875 29.1314 142.447 30.0456 141.841 30.8399C141.236 31.6356 140.472 32.2542 139.553 32.6956C138.632 33.1371 137.541 33.3585 136.28 33.3585L136.281 33.3556Z" fill="#EEEFF2"/>
<path d="M151.832 19.727H153.006L152.286 20.8999C152.589 19.8656 153.075 18.8999 153.743 18.0042C154.411 17.1085 155.238 16.377 156.222 15.8085C157.205 15.2413 158.303 14.957 159.514 14.957C160.649 14.957 161.633 15.1899 162.466 15.657C163.298 16.1242 163.928 16.8056 164.358 17.7013C164.786 18.597 165 19.7013 165 21.0142V32.977H162.389V21.5827C162.389 20.6742 162.269 19.9042 162.029 19.2727C161.789 18.6427 161.386 18.1627 160.818 17.8342C160.251 17.507 159.513 17.3413 158.605 17.3413C157.394 17.3413 156.316 17.5942 155.369 18.0985C154.424 18.6042 153.673 19.297 153.117 20.1799C152.562 21.0642 152.285 22.0599 152.285 23.1713V32.9756H149.712V15.3727H152.209V22.1113L151.831 19.7256L151.832 19.727Z" fill="#EEEFF2"/>
<path d="M15.8022 26.6814L10.7518 40C10.4263 39.7457 10.095 39.4814 9.76661 39.2057L14.6756 26.2543L15.8022 26.6814ZM13.0935 25.2414L5.85711 35.4871C6.13269 35.7943 6.41541 36.0943 6.69812 36.3843L14.0802 25.9371L13.095 25.2414H13.0935ZM11.8142 23.8686L2.81861 31.4957C3.02993 31.8386 3.24982 32.1771 3.48257 32.5086L12.5952 24.7871L11.8142 23.87V23.8686ZM10.9203 22.2157L0.76962 27.1286C0.893845 27.5129 1.03092 27.8914 1.17942 28.2643L11.4472 23.2986L10.9203 22.2157ZM10.4691 20.3957L0.00285573 22.4957C0.00571147 22.9057 0.0271295 23.3114 0.0671097 23.7129L10.7047 21.5771L10.4677 20.3943L10.4691 20.3957ZM0 17.95V19.1529L10.4191 19.7214L10.4863 18.5186L0 17.95ZM0 13.2314V14.4914L10.6062 17.8543L10.9703 16.7071L0 13.2314ZM0 7.62714V9.04571L11.2559 16.0929L11.8956 15.0729L0 7.62714ZM3.57395 3.57143L2.23176 3.90714L12.3225 14.5514L13.1978 13.7214L3.57395 3.57143ZM8.97129 2.22286L7.76046 2.52571L13.7432 13.3214L14.7998 12.7386L8.97129 2.22286ZM13.7075 1.04143L12.5381 1.33143L15.4267 12.4914L16.5918 12.1886L13.7075 1.04143ZM18.4609 0.148571L17.8669 0L17.2558 0.151429L17.2629 12.1014H18.468L18.4609 0.148571ZM22.0148 1.03714L19.1391 12.1857L20.3085 12.4857L23.1871 1.32571L22.0148 1.03571V1.03714ZM26.7554 2.22L20.9382 12.7371L21.9906 13.32L27.9633 2.52L26.7554 2.22ZM32.1484 3.56857L22.5374 13.7186L23.4127 14.5486L33.4863 3.90286L32.1484 3.56714V3.56857ZM23.8411 15.07L24.4836 16.09L35.7395 9.02429V7.60571L23.8397 15.07H23.8411ZM24.7663 16.7L25.1333 17.85L35.7395 14.4757V13.2129L24.7663 16.7ZM25.2533 18.5143L25.3204 19.7171L35.7395 19.1386V17.9314L25.2533 18.5143ZM25.2718 20.3914L25.0391 21.57L35.6738 23.6943C35.7167 23.2957 35.7338 22.89 35.7367 22.48L25.2718 20.39V20.3914ZM24.822 22.2129L24.2952 23.2971L34.5658 28.2514C34.7143 27.8771 34.8514 27.4957 34.9756 27.1114L24.8206 22.2129H24.822ZM23.9296 23.8614L23.1486 24.7829L32.2684 32.4971C32.4982 32.1657 32.7196 31.8271 32.9323 31.48L23.9296 23.86V23.8614ZM22.6503 25.2371L21.6679 25.9329L29.0528 36.3686C29.3384 36.0786 29.6211 35.7786 29.8938 35.4729L22.6503 25.2386V25.2371ZM21.071 26.25L19.9444 26.6771L25.0019 39.99C25.3275 39.7357 25.6559 39.4714 25.9872 39.1957L21.071 26.25Z" fill="#66AAFF"/>
</g>
<defs>
<clipPath id="clip0_1937_3619">
<rect width="165" height="40" fill="white"/>
</clipPath>
</defs>
</svg>
