<svg width="166" height="41" viewBox="0 0 166 41" fill="none" xmlns="http://www.w3.org/2000/svg">
<g id="veridian 2" clip-path="url(#clip0_2100_2218)">
<g id="Group">
<path id="Vector" d="M56.1298 31.6882H58.7798L57.8713 33.014C58.1227 32.1568 58.4256 31.1525 58.7798 30.004C59.1327 28.8554 59.5113 27.6754 59.9156 26.464C60.3184 25.2525 60.7227 24.0925 61.127 22.9811L65.367 11.1697H68.207L59.4998 33.884H55.4113L46.667 11.1697H49.5813L53.9356 22.9811C54.3384 24.0925 54.7427 25.2654 55.147 26.5025C55.5498 27.7397 55.917 28.9311 56.2456 30.0797C56.5727 31.2282 56.8256 32.2068 57.0027 33.014L56.1313 31.6882H56.1298Z" fill="#343B45"/>
<path id="Vector_2" d="M76.46 34.2997C74.6429 34.2997 73.0972 33.9397 71.8229 33.2212C70.5486 32.5012 69.5757 31.4554 68.9072 30.0783C68.2386 28.7026 67.9043 27.0569 67.9043 25.1383C67.9043 23.2197 68.2514 21.5297 68.9457 20.1412C69.64 18.754 70.6172 17.694 71.88 16.9612C73.1414 16.2297 74.63 15.864 76.3472 15.864C78.0643 15.864 79.52 16.1983 80.6443 16.8669C81.7672 17.5354 82.6057 18.4697 83.1614 19.6683C83.7157 20.8669 83.9943 22.2869 83.9943 23.9269V24.7412C83.9943 25.0812 83.9686 25.4169 83.9186 25.744H69.6086V23.9269H82.2914L81.5714 24.6083C81.5957 22.464 81.2114 20.804 80.4172 19.6297C79.6214 18.4569 78.24 17.8697 76.2714 17.8697C74.3029 17.8697 72.9457 18.4754 71.9743 19.6869C71.0029 20.8983 70.5172 22.7026 70.5172 25.0997C70.5172 27.3212 71.0029 29.0497 71.9743 30.2869C72.9457 31.524 74.4414 32.1412 76.46 32.1412C77.62 32.1412 78.5357 31.9654 79.2043 31.6112C79.8729 31.2583 80.3843 30.7854 80.7372 30.1912C81.09 29.5983 81.3672 28.9354 81.57 28.204L83.8414 28.8469C83.5629 29.9826 83.1286 30.954 82.5357 31.7626C81.9429 32.5712 81.1543 33.1954 80.17 33.6369C79.1857 34.0783 77.9486 34.2997 76.46 34.2997Z" fill="#343B45"/>
<path id="Vector_3" d="M89.1416 20.5954L90.1644 20.6326L89.3316 23.1311C89.5073 21.8697 89.7787 20.7911 90.1458 19.894C90.5116 18.9983 90.9658 18.254 91.5087 17.6611C92.0516 17.0683 92.6758 16.6268 93.383 16.3368C94.0887 16.0468 94.8716 15.9011 95.7301 15.9011H95.9573V18.7411H95.7301C94.3158 18.7411 93.1558 18.9683 92.2473 19.4226C91.3387 19.8768 90.6701 20.5897 90.2416 21.5611C89.8116 22.5326 89.5987 23.8268 89.5987 25.4411V33.8826H87.0244V16.2797H89.4473V22.9426L89.1444 20.5954H89.1416Z" fill="#343B45"/>
<path id="Vector_4" d="M101.825 11.8512H98.6445V9.0498H101.825V11.8512ZM101.522 33.8841H98.9088V16.2812H101.522V33.8841Z" fill="#343B45"/>
<path id="Vector_5" d="M104.89 25.1383C104.89 22.0098 105.464 19.6812 106.612 18.1541C107.761 16.6269 109.395 15.8641 111.515 15.8641C112.878 15.8641 114.014 16.1741 114.922 16.7912C115.831 17.4098 116.557 18.2112 117.1 19.1955C117.642 20.1798 118.027 21.2398 118.254 22.3755L118.064 23.9269C118.064 22.2869 117.565 20.9298 116.568 19.8569C115.571 18.7841 114.24 18.2483 112.574 18.2483C110.908 18.2483 109.545 18.7783 108.712 19.8383C107.88 20.8983 107.462 22.6655 107.462 25.1383C107.462 27.6112 107.88 29.3469 108.712 30.4198C109.545 31.4926 110.832 32.0283 112.574 32.0283C113.684 32.0283 114.65 31.7826 115.47 31.2898C116.29 30.7969 116.927 30.1226 117.381 29.2641C117.835 28.4069 118.062 27.4469 118.062 26.3869L118.29 26.9169C118.238 27.8769 118.044 28.7969 117.702 29.6798C117.362 30.5641 116.882 31.3526 116.264 32.0455C115.645 32.7398 114.92 33.2883 114.087 33.6926C113.254 34.0955 112.32 34.2983 111.285 34.2983C109.291 34.2983 107.727 33.5412 106.591 32.0269C105.455 30.5126 104.887 28.2169 104.887 25.1369L104.89 25.1383ZM118.594 22.6026H118.025L117.458 20.4069H118.745L118.594 22.6026ZM118.782 29.7198H117.495L118.025 28.0169H118.782V29.7198ZM118.064 33.8841V8.51978H120.677V33.8841H118.064Z" fill="#343B45"/>
<path id="Vector_6" d="M128.171 11.8512H124.991V9.0498H128.171V11.8512ZM127.868 33.8841H125.255V16.2812H127.868V33.8841Z" fill="#343B45"/>
<path id="Vector_7" d="M136.349 34.2626C135.237 34.2626 134.279 34.104 133.472 33.7898C132.663 33.474 132.039 32.9569 131.597 32.2369C131.156 31.5169 130.935 30.5898 130.935 29.454C130.935 28.0155 131.439 26.8169 132.449 25.8583C133.457 24.8998 135.023 24.4198 137.143 24.4198H143.692V26.0855H137.483C136.17 26.0855 135.16 26.3498 134.455 26.8798C133.747 27.4098 133.395 28.2055 133.395 29.2655C133.395 29.7955 133.515 30.2812 133.755 30.7226C133.995 31.1641 134.392 31.5112 134.947 31.764C135.502 32.0169 136.247 32.1426 137.18 32.1426C138.366 32.1426 139.407 31.9412 140.303 31.5369C141.199 31.134 141.899 30.5712 142.405 29.8526C142.909 29.1326 143.162 28.3198 143.162 27.4112V22.3012C143.162 20.9383 142.84 19.8912 142.196 19.1583C141.553 18.4269 140.423 18.0612 138.807 18.0612C137.57 18.0612 136.586 18.3512 135.855 18.9312C135.122 19.5126 134.567 20.2812 134.189 21.2412L131.727 20.3326C132.055 19.4498 132.547 18.674 133.203 18.0041C133.859 17.3355 134.666 16.8112 135.626 16.4326C136.585 16.0541 137.657 15.8655 138.845 15.8655C140.459 15.8655 141.772 16.1055 142.782 16.584C143.79 17.064 144.536 17.7826 145.015 18.7426C145.493 19.7026 145.735 20.8755 145.735 22.2626V33.8855H143.387V28.7741L143.805 30.0241H142.517L143.199 29.0026C142.946 30.0383 142.517 30.9526 141.912 31.7469C141.306 32.5426 140.542 33.1612 139.622 33.6026C138.7 34.044 137.609 34.2655 136.347 34.2655L136.349 34.2626Z" fill="#343B45"/>
<path id="Vector_8" d="M151.907 20.634H153.081L152.361 21.8069C152.664 20.7726 153.149 19.8069 153.818 18.9112C154.487 18.0154 155.314 17.284 156.298 16.7154C157.282 16.1483 158.381 15.864 159.592 15.864C160.728 15.864 161.712 16.0969 162.545 16.564C163.378 17.0312 164.008 17.7126 164.438 18.6083C164.867 19.504 165.081 20.6083 165.081 21.9212V33.884H162.468V22.4897C162.468 21.5812 162.348 20.8112 162.108 20.1797C161.868 19.5497 161.465 19.0697 160.897 18.7412C160.329 18.414 159.591 18.2483 158.682 18.2483C157.471 18.2483 156.392 18.5012 155.445 19.0054C154.499 19.5112 153.748 20.204 153.192 21.0869C152.637 21.9712 152.359 22.9669 152.359 24.0783V33.8826H149.785V16.2797H152.284V23.0183L151.905 20.6326L151.907 20.634Z" fill="#343B45"/>
</g>
<path id="Vector_9" d="M15.81 27.5884L10.7571 40.907C10.4314 40.6527 10.1 40.3884 9.77143 40.1127L14.6829 27.1613L15.81 27.5884ZM13.1 26.1484L5.86 36.3941C6.13571 36.7013 6.41857 37.0013 6.70143 37.2913L14.0871 26.8441L13.1014 26.1484H13.1ZM11.82 24.7756L2.82 32.4027C3.03143 32.7456 3.25143 33.0841 3.48429 33.4156L12.6014 25.6941L11.82 24.777V24.7756ZM10.9257 23.1227L0.77 28.0356C0.894286 28.4198 1.03143 28.7984 1.18 29.1713L11.4529 24.2056L10.9257 23.1227ZM10.4743 21.3027L0.00285714 23.4027C0.00571428 23.8127 0.0271429 24.2184 0.0671428 24.6198L10.71 22.4841L10.4729 21.3013L10.4743 21.3027ZM0 18.857V20.0598L10.4243 20.6284L10.4914 19.4256L0 18.857ZM0 14.1384V15.3984L10.6114 18.7613L10.9757 17.6141L0 14.1384ZM0 8.53413V9.9527L11.2614 16.9998L11.9014 15.9798L0 8.53413ZM3.57571 4.47841L2.23286 4.81413L12.3286 15.4584L13.2043 14.6284L3.57571 4.47841ZM8.97571 3.12984L7.76428 3.4327L13.75 14.2284L14.8071 13.6456L8.97571 3.12984ZM13.7143 1.94841L12.5443 2.23841L15.4343 13.3984L16.6 13.0956L13.7143 1.94841ZM18.47 1.05555L17.8757 0.906982L17.2643 1.05841L17.2714 13.0084H18.4771L18.47 1.05555ZM22.0257 1.94413L19.1486 13.0927L20.3186 13.3927L23.1986 2.2327L22.0257 1.9427V1.94413ZM26.7686 3.12698L20.9486 13.6441L22.0014 14.227L27.9771 3.42698L26.7686 3.12698ZM32.1643 4.47555L22.5486 14.6256L23.4243 15.4556L33.5029 4.80984L32.1643 4.47413V4.47555ZM23.8529 15.977L24.4957 16.997L35.7571 9.93127V8.5127L23.8514 15.977H23.8529ZM24.7786 17.607L25.1457 18.757L35.7571 15.3827V14.1198L24.7786 17.607ZM25.2657 19.4213L25.3329 20.6241L35.7571 20.0456V18.8384L25.2657 19.4213ZM25.2843 21.2984L25.0514 22.477L35.6914 24.6013C35.7343 24.2027 35.7514 23.797 35.7543 23.387L25.2843 21.297V21.2984ZM24.8343 23.1198L24.3071 24.2041L34.5829 29.1584C34.7314 28.7841 34.8686 28.4027 34.9929 28.0184L24.8329 23.1198H24.8343ZM23.9414 24.7684L23.16 25.6898L32.2843 33.4041C32.5143 33.0727 32.7357 32.7341 32.9486 32.387L23.9414 24.767V24.7684ZM22.6614 26.1441L21.6786 26.8398L29.0671 37.2756C29.3529 36.9856 29.6357 36.6856 29.9086 36.3798L22.6614 26.1456V26.1441ZM21.0814 27.157L19.9543 27.5841L25.0143 40.897C25.34 40.6427 25.6686 40.3784 26 40.1027L21.0814 27.157Z" fill="#006DDB"/>
</g>
<defs>
<clipPath id="clip0_2100_2218">
<rect width="165.081" height="40" fill="white" transform="translate(0 0.906982)"/>
</clipPath>
</defs>
</svg>
