<svg width="1743" height="280" viewBox="0 0 1743 280" fill="none" xmlns="http://www.w3.org/2000/svg">
<g clip-path="url(#clip0_3049_2161)">
<path d="M392.91 215.47H411.46L405.1 224.75C406.86 218.75 408.98 211.72 411.46 203.68C413.93 195.64 416.58 187.38 419.41 178.9C422.23 170.42 425.06 162.3 427.89 154.52L457.57 71.8398H477.45L416.5 230.84H387.88L326.67 71.8398H347.07L377.55 154.52C380.37 162.3 383.2 170.51 386.03 179.17C388.85 187.83 391.42 196.17 393.72 204.21C396.01 212.25 397.78 219.1 399.02 224.75L392.92 215.47H392.91Z" fill="#343B45"/>
<path d="M535.22 233.75C522.5 233.75 511.68 231.23 502.76 226.2C493.84 221.16 487.03 213.84 482.35 204.2C477.67 194.57 475.33 183.05 475.33 169.62C475.33 156.19 477.76 144.36 482.62 134.64C487.48 124.93 494.32 117.51 503.16 112.38C511.99 107.26 522.41 104.7 534.43 104.7C546.45 104.7 556.64 107.04 564.51 111.72C572.37 116.4 578.24 122.94 582.13 131.33C586.01 139.72 587.96 149.66 587.96 161.14V166.84C587.96 169.22 587.78 171.57 587.43 173.86H487.26V161.14H576.04L571 165.91C571.17 150.9 568.48 139.28 562.92 131.06C557.35 122.85 547.68 118.74 533.9 118.74C520.12 118.74 510.62 122.98 503.82 131.46C497.02 139.94 493.62 152.57 493.62 169.35C493.62 184.9 497.02 197 503.82 205.66C510.62 214.32 521.09 218.64 535.22 218.64C543.34 218.64 549.75 217.41 554.43 214.93C559.11 212.46 562.69 209.15 565.16 204.99C567.63 200.84 569.57 196.2 570.99 191.08L586.89 195.58C584.94 203.53 581.9 210.33 577.75 215.99C573.6 221.65 568.08 226.02 561.19 229.11C554.3 232.2 545.64 233.75 535.22 233.75Z" fill="#343B45"/>
<path d="M623.99 137.82L631.15 138.08L625.32 155.57C626.55 146.74 628.45 139.19 631.02 132.91C633.58 126.64 636.76 121.43 640.56 117.28C644.36 113.13 648.73 110.04 653.68 108.01C658.62 105.98 664.1 104.96 670.11 104.96H671.7V124.84H670.11C660.21 124.84 652.09 126.43 645.73 129.61C639.37 132.79 634.69 137.78 631.69 144.58C628.68 151.38 627.19 160.44 627.19 171.74V230.83H609.17V107.61H626.13V154.25L624.01 137.82H623.99Z" fill="#343B45"/>
<path d="M712.77 76.61H690.51V57H712.77V76.61ZM710.65 230.84H692.36V107.62H710.65V230.84Z" fill="#343B45"/>
<path d="M734.23 169.62C734.23 147.72 738.25 131.42 746.29 120.73C754.33 110.04 765.77 104.7 780.61 104.7C790.15 104.7 798.1 106.87 804.46 111.19C810.82 115.52 815.9 121.13 819.7 128.02C823.5 134.91 826.19 142.33 827.78 150.28L826.45 161.14C826.45 149.66 822.96 140.16 815.98 132.65C809 125.14 799.68 121.39 788.02 121.39C776.36 121.39 766.82 125.1 760.99 132.52C755.16 139.94 752.24 152.31 752.24 169.62C752.24 186.93 755.16 199.08 760.99 206.59C766.82 214.1 775.83 217.85 788.02 217.85C795.79 217.85 802.55 216.13 808.29 212.68C814.03 209.23 818.49 204.51 821.67 198.5C824.85 192.5 826.44 185.78 826.44 178.36L828.03 182.07C827.67 188.79 826.31 195.23 823.92 201.41C821.54 207.6 818.18 213.12 813.85 217.97C809.52 222.83 804.44 226.67 798.61 229.5C792.78 232.32 786.24 233.74 779 233.74C765.04 233.74 754.09 228.44 746.14 217.84C738.19 207.24 734.21 191.17 734.21 169.61L734.23 169.62ZM830.16 151.87H826.18L822.21 136.5H831.22L830.16 151.87ZM831.48 201.69H822.47L826.18 189.77H831.48V201.69ZM826.45 230.84V53.29H844.74V230.84H826.45Z" fill="#343B45"/>
<path d="M897.199 76.61H874.939V57H897.199V76.61ZM895.079 230.84H876.789V107.62H895.079V230.84Z" fill="#343B45"/>
<path d="M954.44 233.49C946.66 233.49 939.95 232.38 934.3 230.18C928.64 227.97 924.27 224.35 921.18 219.31C918.09 214.27 916.54 207.78 916.54 199.83C916.54 189.76 920.07 181.37 927.14 174.66C934.2 167.95 945.16 164.59 960 164.59H1005.84V176.25H962.38C953.19 176.25 946.12 178.1 941.18 181.81C936.23 185.52 933.76 191.09 933.76 198.51C933.76 202.22 934.6 205.62 936.28 208.71C937.96 211.8 940.74 214.23 944.63 216C948.51 217.77 953.73 218.65 960.26 218.65C968.56 218.65 975.85 217.24 982.12 214.41C988.39 211.59 993.29 207.65 996.83 202.62C1000.36 197.58 1002.13 191.89 1002.13 185.53V149.76C1002.13 140.22 999.88 132.89 995.37 127.76C990.87 122.64 982.96 120.08 971.65 120.08C962.99 120.08 956.1 122.11 950.98 126.17C945.85 130.24 941.97 135.62 939.32 142.34L922.09 135.98C924.38 129.8 927.83 124.37 932.42 119.68C937.01 115 942.66 111.33 949.38 108.68C956.09 106.03 963.6 104.71 971.91 104.71C983.21 104.71 992.4 106.39 999.47 109.74C1006.53 113.1 1011.75 118.13 1015.1 124.85C1018.45 131.57 1020.14 139.78 1020.14 149.49V230.85H1003.71V195.07L1006.63 203.82H997.62L1002.39 196.67C1000.62 203.92 997.62 210.32 993.38 215.88C989.14 221.45 983.79 225.78 977.35 228.87C970.9 231.96 963.26 233.51 954.43 233.51L954.44 233.49Z" fill="#343B45"/>
<path d="M1063.35 138.09H1071.57L1066.53 146.3C1068.65 139.06 1072.05 132.3 1076.73 126.03C1081.41 119.76 1087.2 114.64 1094.09 110.66C1100.98 106.69 1108.67 104.7 1117.15 104.7C1125.1 104.7 1131.99 106.33 1137.82 109.6C1143.65 112.87 1148.06 117.64 1151.07 123.91C1154.07 130.18 1155.57 137.91 1155.57 147.1V230.84H1137.28V151.08C1137.28 144.72 1136.44 139.33 1134.76 134.91C1133.08 130.5 1130.26 127.14 1126.28 124.84C1122.31 122.55 1117.14 121.39 1110.78 121.39C1102.3 121.39 1094.75 123.16 1088.12 126.69C1081.5 130.23 1076.24 135.08 1072.35 141.26C1068.46 147.45 1066.52 154.42 1066.52 162.2V230.83H1048.5V107.61H1065.99V154.78L1063.34 138.08L1063.35 138.09Z" fill="#343B45"/>
<path d="M1235.6 230.84V71.8398H1295.22C1313.06 71.8398 1327.72 74.6198 1339.21 80.1898C1350.69 85.7498 1359.22 94.3698 1364.78 106.03C1370.35 117.69 1373.13 132.53 1373.13 150.55C1373.13 168.57 1369.9 183.01 1363.46 194.94C1357.01 206.86 1348.04 215.83 1336.56 221.84C1325.07 227.85 1311.56 230.85 1296.02 230.85H1235.6V230.84ZM1254.94 222.36L1244.61 214.68H1294.69C1309.35 214.68 1320.97 212.08 1329.54 206.86C1338.11 201.65 1344.33 194.23 1348.22 184.6C1352.1 174.97 1354.05 163.62 1354.05 150.55C1354.05 135.18 1351.97 122.95 1347.82 113.85C1343.67 104.75 1337.13 98.1698 1328.21 94.1098C1319.29 90.0498 1307.49 88.0198 1292.83 88.0198H1248.04L1254.93 79.5398V222.37L1254.94 222.36Z" fill="#1F242B"/>
<path d="M1444.42 233.75C1431.34 233.75 1420.35 231.14 1411.43 225.93C1402.51 220.72 1395.8 213.21 1391.29 203.4C1386.79 193.6 1384.53 182.07 1384.53 168.82C1384.53 155.57 1386.96 143.91 1391.82 134.37C1396.68 124.83 1403.61 117.5 1412.62 112.37C1421.63 107.25 1432.23 104.69 1444.42 104.69C1456.61 104.69 1467.16 107.25 1476.09 112.37C1485.01 117.5 1491.94 124.83 1496.89 134.37C1501.83 143.91 1504.31 155.4 1504.31 168.82C1504.31 188.79 1499.18 204.59 1488.94 216.25C1478.69 227.91 1463.85 233.74 1444.42 233.74V233.75ZM1444.42 120.07C1430.28 120.07 1419.82 124.36 1413.02 132.92C1406.22 141.49 1402.82 153.37 1402.82 168.56C1402.82 178.63 1404.23 187.42 1407.06 194.93C1409.88 202.44 1414.35 208.22 1420.44 212.29C1426.53 216.36 1434.44 218.38 1444.16 218.38C1458.64 218.38 1469.2 213.88 1475.83 204.87C1482.45 195.86 1485.77 183.76 1485.77 168.56C1485.77 158.32 1484.27 149.61 1481.27 142.46C1478.26 135.31 1473.67 129.79 1467.49 125.9C1461.3 122.02 1453.62 120.07 1444.44 120.07H1444.42Z" fill="#1F242B"/>
<path d="M1610.57 150.28C1609.15 144.1 1607.21 138.8 1604.74 134.38C1602.26 129.97 1598.69 126.56 1594.01 124.18C1589.33 121.79 1582.83 120.6 1574.53 120.6C1561.63 120.6 1551.78 124.71 1544.98 132.92C1538.18 141.14 1534.78 153.28 1534.78 169.36C1534.78 179.08 1536.24 187.6 1539.15 194.93C1542.07 202.26 1546.53 207.91 1552.53 211.89C1558.53 215.86 1566.22 217.85 1575.58 217.85C1583.53 217.85 1589.84 216.48 1594.53 213.74C1599.21 211 1602.83 207.38 1605.4 202.88C1607.96 198.37 1609.95 193.47 1611.36 188.17L1627.79 193.47C1624.96 206.37 1619.4 216.31 1611.09 223.28C1602.78 230.26 1590.95 233.75 1575.58 233.75C1562.86 233.75 1552.04 231.23 1543.12 226.2C1534.2 221.16 1527.49 213.79 1522.98 204.07C1518.48 194.36 1516.22 182.87 1516.22 169.62C1516.22 156.37 1518.56 144.4 1523.24 134.77C1527.92 125.14 1534.72 117.72 1543.65 112.51C1552.57 107.3 1563.04 104.69 1575.05 104.69C1585.82 104.69 1594.75 106.28 1601.82 109.46C1608.88 112.64 1614.49 117.32 1618.65 123.5C1622.8 129.69 1625.67 137.28 1627.26 146.29L1610.57 150.27V150.28Z" fill="#1F242B"/>
<path d="M1695.37 234.02C1683.18 234.02 1673.24 232.47 1665.56 229.38C1657.87 226.29 1652 221.83 1647.94 216C1643.87 210.17 1640.96 203.28 1639.19 195.33L1655.62 191.88C1657.03 197.01 1659.2 201.68 1662.11 205.92C1665.02 210.16 1669.17 213.47 1674.57 215.86C1679.96 218.24 1686.98 219.44 1695.64 219.44C1705.35 219.44 1712.69 217.76 1717.64 214.4C1722.58 211.05 1725.06 205.83 1725.06 198.76C1725.06 193.99 1723.82 190.15 1721.35 187.23C1718.87 184.31 1714.94 181.93 1709.56 180.08C1704.17 178.22 1697.15 176.68 1688.49 175.44C1678.24 173.5 1669.98 170.98 1663.71 167.89C1657.44 164.8 1652.93 160.96 1650.2 156.36C1647.46 151.77 1646.09 146.29 1646.09 139.93C1646.09 129.33 1649.89 120.81 1657.48 114.36C1665.07 107.91 1676.47 104.69 1691.67 104.69C1702.27 104.69 1710.66 106.11 1716.84 108.93C1723.02 111.76 1727.75 115.65 1731.02 120.59C1734.29 125.54 1736.89 131.37 1738.84 138.08L1722.41 141.53C1720.29 132.88 1716.67 126.91 1711.55 123.64C1706.42 120.37 1699.71 118.74 1691.41 118.74C1681.87 118.74 1674.76 120.51 1670.08 124.04C1665.4 127.58 1663.06 132.52 1663.06 138.88C1663.06 142.42 1664.07 145.64 1666.11 148.55C1668.14 151.47 1671.45 153.94 1676.05 155.97C1680.64 158 1687 159.72 1695.13 161.14C1706.79 162.91 1716.11 165.43 1723.09 168.69C1730.07 171.96 1735.1 175.98 1738.19 180.75C1741.28 185.52 1742.83 191.26 1742.83 197.97C1742.83 204.68 1741.28 211.05 1738.19 216.52C1735.1 222 1730.11 226.28 1723.22 229.37C1716.33 232.46 1707.05 234.01 1695.4 234.01L1695.37 234.02Z" fill="#1F242B"/>
<path d="M110.67 186.77L75.3 280C73.02 278.22 70.7 276.37 68.4 274.44L102.78 183.78L110.67 186.77ZM91.7 176.69L41.02 248.41C42.95 250.56 44.93 252.66 46.91 254.69L98.61 181.56L91.71 176.69H91.7ZM82.74 167.08L19.74 220.47C21.22 222.87 22.76 225.24 24.39 227.56L88.21 173.51L82.74 167.09V167.08ZM76.48 155.51L5.39 189.9C6.26 192.59 7.22 195.24 8.26 197.85L80.17 163.09L76.48 155.51ZM73.32 142.77L0.02 157.47C0.04 160.34 0.19 163.18 0.47 165.99L74.97 151.04L73.31 142.76L73.32 142.77ZM0 125.65V134.07L72.97 138.05L73.44 129.63L0 125.65ZM0 92.62V101.44L74.28 124.98L76.83 116.95L0 92.62ZM0 53.39V63.32L78.83 112.65L83.31 105.51L0 53.39ZM25.03 25L15.63 27.35L86.3 101.86L92.43 96.05L25.03 25ZM62.83 15.56L54.35 17.68L96.25 93.25L103.65 89.17L62.83 15.56ZM96 7.29L87.81 9.32L108.04 87.44L116.2 85.32L96 7.29ZM129.29 1.04L125.13 0L120.85 1.06L120.9 84.71H129.34L129.29 1.04ZM154.18 7.26L134.04 85.3L142.23 87.4L162.39 9.28L154.18 7.25V7.26ZM187.38 15.54L146.64 89.16L154.01 93.24L195.84 17.64L187.38 15.54ZM225.15 24.98L157.84 96.03L163.97 101.84L234.52 27.32L225.15 24.97V24.98ZM166.97 105.49L171.47 112.63L250.3 63.17V53.24L166.96 105.49H166.97ZM173.45 116.9L176.02 124.95L250.3 101.33V92.49L173.45 116.9ZM176.86 129.6L177.33 138.02L250.3 133.97V125.52L176.86 129.6ZM176.99 142.74L175.36 150.99L249.84 165.86C250.14 163.07 250.26 160.23 250.28 157.36L176.99 142.73V142.74ZM173.84 155.49L170.15 163.08L242.08 197.76C243.12 195.14 244.08 192.47 244.95 189.78L173.83 155.49H173.84ZM167.59 167.03L162.12 173.48L225.99 227.48C227.6 225.16 229.15 222.79 230.64 220.36L167.59 167.02V167.03ZM158.63 176.66L151.75 181.53L203.47 254.58C205.47 252.55 207.45 250.45 209.36 248.31L158.63 176.67V176.66ZM147.57 183.75L139.68 186.74L175.1 279.93C177.38 278.15 179.68 276.3 182 274.37L147.57 183.75Z" fill="#006DDB"/>
</g>
<defs>
<clipPath id="clip0_3049_2161">
<rect width="1742.8" height="280" fill="white"/>
</clipPath>
</defs>
</svg>
